<?xml version="1.0" encoding="UTF-8" standalone="no"?>
<!-- Created with Inkscape (http://www.inkscape.org/) -->

<svg
   width="22"
   height="20"
   viewBox="0 0 22 20.000001"
   id="svg4142"
   version="1.1"
   inkscape:version="1.3.2 (091e20ef0f, 2023-11-25)"
   sodipodi:docname="close-prelight.svg"
   xmlns:inkscape="http://www.inkscape.org/namespaces/inkscape"
   xmlns:sodipodi="http://sodipodi.sourceforge.net/DTD/sodipodi-0.dtd"
   xmlns="http://www.w3.org/2000/svg"
   xmlns:svg="http://www.w3.org/2000/svg"
   xmlns:rdf="http://www.w3.org/1999/02/22-rdf-syntax-ns#"
   xmlns:cc="http://creativecommons.org/ns#"
   xmlns:dc="http://purl.org/dc/elements/1.1/">
  <defs
     id="defs4144" />
  <sodipodi:namedview
     id="base"
     pagecolor="#ffffff"
     bordercolor="#666666"
     borderopacity="1.0"
     inkscape:pageopacity="0.0"
     inkscape:pageshadow="2"
     inkscape:zoom="20.088085"
     inkscape:cx="-2.2899146"
     inkscape:cy="19.464274"
     inkscape:document-units="px"
     inkscape:current-layer="layer1"
     showgrid="true"
     units="px"
     inkscape:window-width="2560"
     inkscape:window-height="1372"
     inkscape:window-x="0"
     inkscape:window-y="0"
     inkscape:window-maximized="1"
     inkscape:showpageshadow="2"
     inkscape:pagecheckerboard="0"
     inkscape:deskcolor="#d1d1d1">
    <inkscape:grid
       type="xygrid"
       id="grid4690"
       originx="0"
       originy="0"
       spacingy="1"
       spacingx="1"
       units="px"
       visible="true" />
  </sodipodi:namedview>
  <metadata
     id="metadata4147">
    <rdf:RDF>
      <cc:Work
         rdf:about="">
        <dc:format>image/svg+xml</dc:format>
        <dc:type
           rdf:resource="http://purl.org/dc/dcmitype/StillImage" />
      </cc:Work>
    </rdf:RDF>
  </metadata>
  <g
     inkscape:label="Layer 1"
     inkscape:groupmode="layer"
     id="layer1"
     transform="translate(0,-1020.3622)">
    <rect
       style="opacity:1;fill:#2b303c;fill-opacity:1;fill-rule:evenodd;stroke:none;stroke-width:1.9236;stroke-linecap:butt;stroke-linejoin:miter;stroke-miterlimit:4;stroke-dasharray:none;stroke-dashoffset:478.437;stroke-opacity:1"
       id="rect4741"
       width="22"
       height="20"
       x="0"
       y="1020.3622" />
    <rect
       style="fill:#bf616a;stroke-width:1.7049;fill-opacity:1"
       id="rect1"
       width="14"
       height="14"
       x="4"
       y="1023.3622"
       rx="16.038467"
       ry="2.2144633e-05" />
    <path
       inkscape:connector-curvature="0"
       id="path4098"
       d="m 7.8482851,1026.569 c -0.161113,0 -0.322471,0.062 -0.444723,0.1851 l -0.01105,0.011 c -0.244524,0.2445 -0.244524,0.6449 0,0.8894 l 2.7070109,2.707 -2.7070109,2.7098 c -0.244453,0.2444 -0.244453,0.6422 0,0.8866 l 0.01105,0.014 c 0.244435,0.2446 0.64494,0.2446 0.889446,0 l 2.7070119,-2.7069 2.707012,2.7069 c 0.244451,0.2446 0.64494,0.2446 0.889447,0 l 0.01105,-0.014 c 0.244433,-0.2444 0.244433,-0.6422 0,-0.8866 l -2.707012,-2.7098 2.707011,-2.707 c 0.244434,-0.2445 0.244507,-0.645 0,-0.8894 l -0.01105,-0.011 c -0.244578,-0.2445 -0.644995,-0.2445 -0.889446,0 l -2.707012,2.707 -2.7070119,-2.707 c -0.122253,-0.1223 -0.28361,-0.1851 -0.444723,-0.1851 z"
       style="fill:#2b303c;fill-opacity:1;fill-rule:evenodd;stroke:none;stroke-width:0.0135173" />
  </g>
</svg>
